<mxfile host="app.diagrams.net" modified="2021-12-21T23:30:30.356Z" agent="5.0 (Macintosh; Intel Mac OS X 10_15_7) AppleWebKit/605.1.15 (KHTML, like Gecko) Version/15.2 Safari/605.1.15" etag="OsIHZ_SxmExb-jqIxYnO" version="16.0.3" type="github">
  <diagram id="B3GgMDv1v1YZH2xltkuA" name="Page-1">
    <mxGraphModel dx="1670" dy="908" grid="1" gridSize="10" guides="1" tooltips="1" connect="1" arrows="1" fold="1" page="1" pageScale="1" pageWidth="827" pageHeight="1169" math="0" shadow="0">
      <root>
        <mxCell id="0" />
        <mxCell id="1" parent="0" />
        <mxCell id="WKoG2sFjEVWngT4l1_YX-2" style="edgeStyle=orthogonalEdgeStyle;rounded=0;orthogonalLoop=1;jettySize=auto;html=1;" edge="1" parent="1" source="WKoG2sFjEVWngT4l1_YX-1">
          <mxGeometry relative="1" as="geometry">
            <mxPoint x="260" y="130" as="targetPoint" />
          </mxGeometry>
        </mxCell>
        <mxCell id="WKoG2sFjEVWngT4l1_YX-1" value="7 sites" style="rounded=0;whiteSpace=wrap;html=1;" vertex="1" parent="1">
          <mxGeometry x="100" y="140" width="80" height="60" as="geometry" />
        </mxCell>
        <mxCell id="WKoG2sFjEVWngT4l1_YX-7" style="edgeStyle=orthogonalEdgeStyle;rounded=0;orthogonalLoop=1;jettySize=auto;html=1;exitX=1;exitY=0.5;exitDx=0;exitDy=0;" edge="1" parent="1" source="WKoG2sFjEVWngT4l1_YX-3">
          <mxGeometry relative="1" as="geometry">
            <mxPoint x="420" y="100" as="targetPoint" />
          </mxGeometry>
        </mxCell>
        <mxCell id="WKoG2sFjEVWngT4l1_YX-3" value="sequence samples 50 / wk" style="rounded=1;whiteSpace=wrap;html=1;" vertex="1" parent="1">
          <mxGeometry x="250" y="70" width="120" height="60" as="geometry" />
        </mxCell>
        <mxCell id="WKoG2sFjEVWngT4l1_YX-12" value="" style="edgeStyle=orthogonalEdgeStyle;rounded=0;orthogonalLoop=1;jettySize=auto;html=1;" edge="1" parent="1" source="WKoG2sFjEVWngT4l1_YX-6" target="WKoG2sFjEVWngT4l1_YX-11">
          <mxGeometry relative="1" as="geometry" />
        </mxCell>
        <mxCell id="WKoG2sFjEVWngT4l1_YX-6" value="the harmonized CSV Variant Template" style="rounded=1;whiteSpace=wrap;html=1;" vertex="1" parent="1">
          <mxGeometry x="590" y="70" width="120" height="60" as="geometry" />
        </mxCell>
        <mxCell id="WKoG2sFjEVWngT4l1_YX-9" style="edgeStyle=orthogonalEdgeStyle;rounded=0;orthogonalLoop=1;jettySize=auto;html=1;exitX=1;exitY=0.5;exitDx=0;exitDy=0;" edge="1" parent="1" source="WKoG2sFjEVWngT4l1_YX-8" target="WKoG2sFjEVWngT4l1_YX-6">
          <mxGeometry relative="1" as="geometry" />
        </mxCell>
        <mxCell id="WKoG2sFjEVWngT4l1_YX-8" value="lineage is determined" style="rounded=1;whiteSpace=wrap;html=1;" vertex="1" parent="1">
          <mxGeometry x="420" y="70" width="120" height="60" as="geometry" />
        </mxCell>
        <mxCell id="WKoG2sFjEVWngT4l1_YX-11" value="DSHS data portal" style="whiteSpace=wrap;html=1;rounded=1;" vertex="1" parent="1">
          <mxGeometry x="590" y="210" width="120" height="60" as="geometry" />
        </mxCell>
        <mxCell id="WKoG2sFjEVWngT4l1_YX-13" value="Preliminary" style="text;html=1;strokeColor=none;fillColor=none;align=center;verticalAlign=middle;whiteSpace=wrap;rounded=0;" vertex="1" parent="1">
          <mxGeometry x="720" y="100" width="60" height="30" as="geometry" />
        </mxCell>
      </root>
    </mxGraphModel>
  </diagram>
</mxfile>
